<?xml version="1.0" encoding="UTF-8"?>
<svg id="Calque_2" data-name="Calque 2" xmlns="http://www.w3.org/2000/svg" viewBox="0 0 660.78 130.87">
  <defs>
    <style>
      .cls-1 {
        fill: #b7a585;
      }

      .cls-2 {
        fill: #fff;
      }
    </style>
  </defs>
  <g id="Calque_1-2" data-name="Calque 1">
    <g>
      <g>
        <path class="cls-2" d="M179.72,87.41v15.06h-1.51v-12.78l-5.27,8.82h-.22l-5.27-8.82v12.78h-1.51v-15.06h1.87l5.01,8.39,5.01-8.39h1.87Z"/>
        <path class="cls-2" d="M201.78,102.47l-1.4-3.7h-7.14l-1.4,3.7h-1.59l5.79-15.06h1.55l5.79,15.06h-1.59ZM193.78,97.35h6.07l-3.03-8.07-3.03,8.07Z"/>
        <path class="cls-2" d="M219.71,87.41c2.04,0,3.74.73,5.08,2.19,1.36,1.44,2.03,3.23,2.03,5.34s-.67,3.89-2.03,5.36c-1.33,1.44-3.03,2.17-5.08,2.17h-5.81v-15.06h5.81ZM219.71,101.05c1.66,0,2.99-.58,4.04-1.76,1.06-1.19,1.59-2.63,1.59-4.35s-.54-3.16-1.59-4.35c-1.05-1.18-2.39-1.76-4.04-1.76h-4.3v12.22h4.3Z"/>
        <path class="cls-2" d="M239.5,101.05h7.31v1.42h-8.82v-15.06h8.72v1.42h-7.21v5.34h6.67v1.42h-6.67v5.47Z"/>
        <path class="cls-2" d="M271.97,87.41h1.51v15.06h-1.51v-15.06Z"/>
        <path class="cls-2" d="M295.2,87.41h1.51v15.06h-1.29l-8.39-12.27v12.27h-1.51v-15.06h1.29l8.39,12.27v-12.27Z"/>
        <path class="cls-2" d="M336.5,87.41v15.06h-1.51v-12.78l-5.27,8.82h-.21l-5.27-8.82v12.78h-1.51v-15.06h1.87l5.01,8.39,5.02-8.39h1.87Z"/>
        <path class="cls-2" d="M358.56,102.47l-1.4-3.7h-7.14l-1.4,3.7h-1.59l5.79-15.06h1.55l5.79,15.06h-1.59ZM350.56,97.35h6.07l-3.04-8.07-3.03,8.07Z"/>
        <path class="cls-2" d="M379.94,102.47l-3.53-6.02h-4.22v6.02h-1.51v-15.06h6.02c1.25,0,2.3.45,3.19,1.33.88.88,1.33,1.94,1.33,3.19,0,1.01-.3,1.94-.92,2.73-.6.8-1.38,1.31-2.33,1.59l3.68,6.22h-1.72ZM372.19,88.83v6.2h4.52c.84,0,1.55-.3,2.13-.91.58-.62.88-1.36.88-2.19s-.3-1.59-.88-2.2c-.58-.6-1.29-.9-2.13-.9h-4.52Z"/>
        <path class="cls-2" d="M391.33,99.05l1.29-.75c.54,1.87,2.03,2.97,4.33,2.97s3.55-1.07,3.55-2.71c0-.8-.28-1.38-.86-1.79-.58-.41-1.53-.82-2.84-1.25-1.57-.52-2.6-.92-3.1-1.25-1.14-.69-1.72-1.68-1.72-2.99s.45-2.28,1.34-3.01c.88-.75,1.98-1.12,3.29-1.12,2.35,0,4.13,1.35,4.97,3.25l-1.27.71c-.69-1.66-1.92-2.5-3.7-2.5s-3.12.97-3.12,2.6c0,.75.26,1.31.77,1.68.52.36,1.38.75,2.56,1.14l1.16.41c.24.06.58.19,1.03.39.45.17.8.32,1.01.47.43.26,1.18.77,1.44,1.27.28.45.54,1.16.54,1.94,0,1.27-.47,2.3-1.4,3.08-.92.75-2.15,1.14-3.68,1.14-2.75,0-4.82-1.38-5.6-3.68Z"/>
        <path class="cls-2" d="M414.58,101.05h7.31v1.42h-8.82v-15.06h8.72v1.42h-7.21v5.34h6.67v1.42h-6.67v5.47Z"/>
        <path class="cls-2" d="M433.08,87.41h1.51v15.06h-1.51v-15.06Z"/>
        <path class="cls-2" d="M448.13,101.05h6.89v1.42h-8.39v-15.06h1.51v13.64Z"/>
        <path class="cls-2" d="M467.28,101.05h6.89v1.42h-8.4v-15.06h1.51v13.64Z"/>
        <path class="cls-2" d="M486.42,101.05h7.31v1.42h-8.82v-15.06h8.72v1.42h-7.21v5.34h6.67v1.42h-6.67v5.47Z"/>
      </g>
      <g>
        <path class="cls-2" d="M130.87,130.87H0V0h130.87v130.87ZM1.68,129.19h127.5V1.68H1.68v127.5Z"/>
        <g>
          <path class="cls-1" d="M32.04,68.43c0-7.87,0-14.91,0-14.92,0-5.54.9-7.35,3.14-8.02v-1.03h-12.75v1.03c2.2.66,3.14,2.44,3.14,7.69l.02,36.52c0,6.47-.79,8.29-3.16,9v1.03h12.75v-1.03c-2.37-.71-3.16-2.53-3.16-9,0,0,0-8.56.01-17.35h8.73v-3.92h-8.73Z"/>
          <path class="cls-1" d="M108.44,45.49v-1.03h-12.75v1.03c2.2.66,3.14,2.44,3.14,7.69v15.25s-8.95,0-8.95,0v3.92h8.96v17.35c.01,6.47-.78,8.29-3.14,9v1.03h12.75v-1.03c-2.37-.71-3.16-2.53-3.16-9,0,0,.03-36.17.02-36.19,0-5.54.9-7.35,3.14-8.02Z"/>
          <g>
            <path class="cls-2" d="M50.16,40.19c0-5.54.9-7.35,3.14-8.02v-1.03h-12.75v1.03c2.2.66,3.14,2.44,3.14,7.69l.02,36.52c0,6.47-.79,8.29-3.16,9v1.03h12.75v-1.03c-2.37-.71-3.16-2.53-3.16-9,0,0,0-8.42.01-17.14h8.97v-3.92h-8.97c0-7.95,0-15.11,0-15.12Z"/>
            <path class="cls-2" d="M89.89,32.17v-1.03h-12.75v1.03c2.2.66,3.14,2.44,3.14,7.69v15.45s-8.46,0-8.46,0v3.92h8.47v17.14c.01,6.47-.78,8.29-3.15,9v1.03h12.75v-1.03c-2.37-.71-3.16-2.53-3.16-9,0,0,.03-36.17.02-36.19,0-5.54.9-7.35,3.14-8.02Z"/>
          </g>
          <path class="cls-1" d="M68.7,68.43c0-7.87,0-14.91,0-14.92,0-5.54.9-7.35,3.14-8.02v-1.03h-12.82v1.03c2.2.66,3.14,2.44,3.14,7.69v15.25s-8.72,0-8.72,0v3.92h8.73v17.35c.01,6.47-.78,8.29-3.15,9v1.03h12.82v-1.03c-2.37-.71-3.16-2.53-3.16-9,0,0,0-8.56.01-17.35h8.49v-3.92h-8.48Z"/>
        </g>
      </g>
      <g>
        <path class="cls-2" d="M180.74,38.56v5.15h-9.22v27.63h-5.38v-27.63h-9.27v-5.15h23.88Z"/>
        <path class="cls-2" d="M206.96,38.56h5.39v32.78h-5.39v-14.19h-14.05v14.19h-5.38v-32.78h5.38v13.44h14.05v-13.44Z"/>
        <path class="cls-2" d="M227.1,66.19h14.52v5.15h-19.9v-32.78h19.67v5.15h-14.28v8.52h13.11v5.1h-13.11v8.85Z"/>
        <path class="cls-1" d="M283.28,38.56h5.39v32.78h-5.39v-14.19h-14.05v14.19h-5.38v-32.78h5.38v13.44h14.05v-13.44Z"/>
        <path class="cls-2" d="M297.71,38.56h5.38v21.59c0,3.98,2.34,6.56,7.02,6.56s7.02-2.58,7.02-6.56v-21.59h5.38v21.91c0,3.51-1.17,6.27-3.47,8.38-2.29,2.06-5.29,3.09-8.94,3.09s-6.65-1.03-8.94-3.09c-2.29-2.11-3.47-4.87-3.47-8.38v-21.91Z"/>
        <path class="cls-2" d="M362.88,38.56v32.78h-5.38v-23.36l-9.97,16.48h-.66l-9.97-16.53v23.41h-5.38v-32.78h5.81l9.88,16.39,9.93-16.39h5.76Z"/>
        <path class="cls-2" d="M393.6,71.34l-2.29-6.6h-13.95l-2.29,6.6h-5.85l11.89-32.78h6.46l11.85,32.78h-5.81ZM379.13,59.68h10.39l-5.2-14.8-5.2,14.8Z"/>
        <path class="cls-2" d="M425.39,38.56h5.39v32.78h-4.21l-15.45-22.24v22.24h-5.38v-32.78h4.21l15.45,22.24v-22.24Z"/>
        <path class="cls-2" d="M466.74,38.56c3.09,0,5.67,1.03,7.73,3.09,2.11,2.06,3.14,4.64,3.14,7.68s-1.03,5.57-3.14,7.68-4.64,3.09-7.73,3.09h-6.7v11.24h-5.38v-32.78h12.08ZM466.74,55.04c3.18,0,5.48-2.39,5.48-5.71s-2.29-5.71-5.48-5.71h-6.7v11.42h6.7Z"/>
        <path class="cls-2" d="M503.17,71.34l-2.29-6.6h-13.95l-2.29,6.6h-5.85l11.89-32.78h6.46l11.85,32.78h-5.81ZM488.7,59.68h10.39l-5.2-14.8-5.2,14.8Z"/>
        <path class="cls-2" d="M533.98,71.34l-6.93-11.94h-6.37v11.94h-5.38v-32.78h13.11c2.95,0,5.43,1.03,7.44,3.09,2.06,2.01,3.09,4.49,3.09,7.44,0,4.17-2.62,7.96-6.51,9.51l7.45,12.74h-5.9ZM520.68,43.62v10.96h7.73c2.86,0,5.15-2.44,5.15-5.48s-2.29-5.48-5.15-5.48h-7.73Z"/>
        <path class="cls-2" d="M567.36,38.56v5.15h-9.22v27.63h-5.38v-27.63h-9.27v-5.15h23.88Z"/>
        <path class="cls-2" d="M593.82,38.56h5.39v32.78h-4.21l-15.45-22.24v22.24h-5.38v-32.78h4.21l15.45,22.24v-22.24Z"/>
        <path class="cls-2" d="M613.95,66.19h14.52v5.15h-19.9v-32.78h19.67v5.15h-14.28v8.52h13.11v5.1h-13.11v8.85Z"/>
        <path class="cls-2" d="M654.88,71.34l-6.93-11.94h-6.37v11.94h-5.38v-32.78h13.11c2.95,0,5.43,1.03,7.44,3.09,2.06,2.01,3.09,4.49,3.09,7.44,0,4.17-2.62,7.96-6.51,9.51l7.45,12.74h-5.9ZM641.58,43.62v10.96h7.73c2.86,0,5.15-2.44,5.15-5.48s-2.29-5.48-5.15-5.48h-7.73Z"/>
      </g>
    </g>
  </g>
</svg>