<?xml version="1.0" encoding="UTF-8"?>
<svg id="Calque_2" data-name="Calque 2" xmlns="http://www.w3.org/2000/svg" viewBox="0 0 1080 1080">
  <defs>
    <style>
      .cls-1 {
        fill: #aa182a;
      }

      .cls-2 {
        fill: #fff;
      }
    </style>
  </defs>
  <g id="Calque_1-2" data-name="Calque 1">
    <g>
      <rect class="cls-1" width="1080" height="1080"/>
      <g>
        <g>
          <path class="cls-2" d="M333.59,634.05l5.21-11.83h4.39v.48h-.53c-.7,0-1.16.06-1.38.17-.22.12-.36.33-.44.65s-.11,1.07-.11,2.26v7.01c0,1.12.03,1.86.08,2.21.06.35.2.61.43.78s.67.25,1.31.25h.63v.49h-6.83v-.49h.51c.6,0,1.02-.08,1.26-.23.23-.16.39-.4.45-.72s.1-1.09.1-2.28v-9.1l-5.66,12.82h-.5l-5.71-12.82v8.37c0,1.15.04,1.93.11,2.34.07.42.29.78.65,1.09s.88.49,1.54.53v.49h-5.11v-.49c.61-.04,1.11-.2,1.49-.5.38-.3.62-.67.7-1.1s.13-1.24.13-2.43v-6.22c0-1.14-.04-1.87-.1-2.2-.07-.33-.21-.56-.42-.69-.21-.13-.68-.19-1.41-.19h-.39v-.48h4.36l5.24,11.83Z"/>
          <path class="cls-2" d="M364.43,631.24h-5.43l-.37.91c-.55,1.31-.82,2.17-.82,2.57,0,.43.15.75.44.98.29.22.67.33,1.12.33v.49h-4.25v-.49c.63-.1,1.1-.32,1.41-.67.31-.35.68-1.08,1.12-2.2.04-.11.21-.51.51-1.22l4.15-9.92h.41l4.78,11.36.65,1.5c.15.34.35.6.6.8s.62.31,1.12.36v.49h-5.62v-.49c.69,0,1.15-.05,1.4-.15.24-.1.36-.3.36-.61,0-.15-.16-.62-.48-1.38l-1.1-2.65ZM364.25,630.77l-2.53-6.09-2.52,6.09h5.05Z"/>
          <path class="cls-2" d="M394.54,636.84l-10.11-13.4v9.92c0,.82.04,1.36.12,1.62.08.26.31.5.69.72.38.22.95.33,1.71.33v.49h-5.34v-.49c.68-.05,1.2-.17,1.56-.37.36-.2.57-.42.64-.65.07-.23.1-.78.1-1.65v-7.58c0-1.1-.05-1.83-.15-2.2-.1-.37-.26-.61-.48-.72-.22-.11-.72-.16-1.48-.16v-.48h4.22l8.47,11.19v-8.55c0-.63-.06-1.08-.2-1.33-.13-.25-.39-.45-.79-.6-.4-.15-.88-.22-1.45-.22v-.48h5.19v.48c-.6.05-1.08.17-1.43.35s-.57.4-.66.66c-.1.26-.14.69-.14,1.3v11.83h-.45Z"/>
          <path class="cls-2" d="M417.67,631.24h-5.43l-.37.91c-.55,1.31-.82,2.17-.82,2.57,0,.43.15.75.44.98.29.22.67.33,1.12.33v.49h-4.25v-.49c.63-.1,1.1-.32,1.41-.67.31-.35.68-1.08,1.12-2.2.04-.11.21-.51.51-1.22l4.15-9.92h.41l4.78,11.36.65,1.5c.15.34.35.6.6.8s.62.31,1.12.36v.49h-5.62v-.49c.69,0,1.15-.05,1.4-.15.24-.1.36-.3.36-.61,0-.15-.16-.62-.48-1.38l-1.1-2.65ZM417.49,630.77l-2.53-6.09-2.52,6.09h5.05Z"/>
          <path class="cls-2" d="M443.65,630.41h6.17v.51c-.68,0-1.14.07-1.39.21-.24.14-.4.37-.48.69-.08.32-.12,1.09-.12,2.33v1.52c-.17-.03-.32-.04-.45-.04-.54,0-1.25.17-2.13.5-1.2.45-2.3.67-3.32.67-2.04,0-3.75-.67-5.1-2.02-1.36-1.35-2.04-3.05-2.04-5.12s.65-3.84,1.94-5.38c1.29-1.54,3.05-2.31,5.27-2.31,1.91,0,3.49.7,4.75,2.11.23-.49.38-1.02.44-1.59h.51v4.78h-.51c-.21-1.47-.76-2.63-1.67-3.49-.91-.86-2.02-1.29-3.32-1.29s-2.51.5-3.51,1.5-1.5,2.77-1.5,5.31.48,4.34,1.45,5.39c.96,1.06,2.16,1.59,3.59,1.59.73,0,1.39-.15,1.99-.45s1.01-.66,1.22-1.09c.22-.43.33-.97.33-1.62,0-.77-.05-1.28-.15-1.53-.1-.26-.26-.43-.47-.52s-.6-.13-1.16-.13h-.34v-.51Z"/>
          <path class="cls-2" d="M474.17,632.06h.51l-.3,4.45h-11.84v-.49h.29c.71,0,1.17-.09,1.38-.28.21-.19.34-.43.4-.72s.08-1.04.08-2.23v-7.01c0-1.09-.03-1.81-.09-2.15-.06-.34-.2-.59-.41-.72-.21-.14-.67-.21-1.36-.21v-.48h10.22l.34,3.56h-.49c-.23-1-.5-1.71-.83-2.12-.33-.42-.72-.68-1.17-.79-.45-.11-1.17-.16-2.17-.16h-1.98v6h1.52c.7,0,1.18-.06,1.46-.18s.46-.3.55-.54c.09-.24.13-.72.13-1.42h.5v4.89h-.5c0-.79-.07-1.33-.2-1.6-.13-.27-.33-.45-.59-.53-.26-.08-.69-.12-1.3-.12h-1.57v3.38c0,1.69.11,2.69.33,2.99.22.3.8.45,1.76.45h1.06c.75,0,1.37-.1,1.86-.29.48-.19.95-.59,1.39-1.19.44-.6.79-1.43,1.04-2.48Z"/>
          <path class="cls-2" d="M496.87,634.05l5.21-11.83h4.39v.48h-.53c-.7,0-1.16.06-1.38.17-.22.12-.36.33-.44.65-.07.32-.11,1.07-.11,2.26v7.01c0,1.12.03,1.86.08,2.21.06.35.2.61.43.78s.67.25,1.31.25h.63v.49h-6.83v-.49h.51c.61,0,1.03-.08,1.26-.23.24-.16.39-.4.45-.72.07-.33.1-1.09.1-2.28v-9.1l-5.66,12.82h-.49l-5.71-12.82v8.37c0,1.15.04,1.93.11,2.34.07.42.29.78.65,1.09.37.31.88.49,1.54.53v.49h-5.12v-.49c.61-.04,1.11-.2,1.49-.5s.62-.67.7-1.1.13-1.24.13-2.43v-6.22c0-1.14-.03-1.87-.1-2.2-.07-.33-.21-.56-.42-.69-.21-.13-.68-.19-1.41-.19h-.39v-.48h4.36l5.24,11.83Z"/>
          <path class="cls-2" d="M530.72,632.06h.51l-.3,4.45h-11.84v-.49h.29c.71,0,1.17-.09,1.38-.28.21-.19.34-.43.4-.72s.08-1.04.08-2.23v-7.01c0-1.09-.03-1.81-.09-2.15-.06-.34-.2-.59-.41-.72-.21-.14-.67-.21-1.36-.21v-.48h10.22l.34,3.56h-.49c-.23-1-.5-1.71-.83-2.12-.33-.42-.72-.68-1.17-.79-.45-.11-1.17-.16-2.17-.16h-1.98v6h1.52c.7,0,1.18-.06,1.46-.18s.46-.3.55-.54c.09-.24.13-.72.13-1.42h.5v4.89h-.5c0-.79-.07-1.33-.2-1.6-.13-.27-.33-.45-.59-.53-.26-.08-.69-.12-1.3-.12h-1.57v3.38c0,1.69.11,2.69.33,2.99.22.3.8.45,1.76.45h1.06c.75,0,1.37-.1,1.86-.29.48-.19.95-.59,1.39-1.19.44-.6.79-1.43,1.04-2.48Z"/>
          <path class="cls-2" d="M556.7,636.84l-10.11-13.4v9.92c0,.82.04,1.36.12,1.62.08.26.31.5.69.72.38.22.95.33,1.71.33v.49h-5.34v-.49c.68-.05,1.2-.17,1.56-.37.36-.2.57-.42.64-.65.07-.23.1-.78.1-1.65v-7.58c0-1.1-.05-1.83-.15-2.2-.1-.37-.26-.61-.48-.72-.22-.11-.72-.16-1.48-.16v-.48h4.22l8.47,11.19v-8.55c0-.63-.06-1.08-.2-1.33-.13-.25-.39-.45-.79-.6-.4-.15-.88-.22-1.45-.22v-.48h5.19v.48c-.6.05-1.08.17-1.43.35s-.57.4-.66.66c-.1.26-.14.69-.14,1.3v11.83h-.45Z"/>
          <path class="cls-2" d="M572.14,625.65h-.48l.07-3.44h13.88l.07,3.44h-.45c-.16-.94-.38-1.62-.66-2.04-.28-.42-.58-.67-.91-.77-.32-.09-.88-.14-1.66-.14h-2.3v10.09c0,1.12.03,1.85.08,2.2s.19.61.43.78.67.25,1.31.25h.7v.49h-7.13v-.49h.74c.61,0,1.04-.08,1.27-.23.23-.16.39-.4.45-.72s.1-1.09.1-2.28v-10.09h-2.12c-.92,0-1.54.04-1.86.13s-.61.35-.89.8c-.28.44-.49,1.12-.64,2.02Z"/>
          <path class="cls-2" d="M615.84,636.37v-4.6h.53c.6,2.99,2.01,4.49,4.25,4.49,1,0,1.78-.29,2.34-.86.55-.57.83-1.21.83-1.92s-.24-1.32-.73-1.8c-.49-.48-1.37-.99-2.66-1.54-1.14-.49-2.01-.92-2.59-1.29s-1.04-.85-1.37-1.44c-.33-.59-.49-1.22-.49-1.89,0-1.02.35-1.87,1.06-2.55.71-.68,1.6-1.02,2.69-1.02.6,0,1.17.1,1.71.29.54.2,1.08.6,1.64,1.22.32-.39.51-.81.55-1.25h.46v3.74h-.46c-.27-1.09-.74-1.95-1.42-2.57-.68-.62-1.46-.94-2.36-.94s-1.47.23-1.87.69c-.4.46-.6.96-.6,1.51,0,.66.25,1.22.75,1.68.49.46,1.38.98,2.67,1.56,1.23.55,2.12.99,2.68,1.32s1.01.8,1.35,1.39c.34.59.51,1.27.51,2.05,0,1.22-.41,2.22-1.22,2.98-.82.77-1.91,1.15-3.27,1.15-1.57,0-2.88-.6-3.92-1.8-.23.33-.4.79-.52,1.39h-.53Z"/>
          <path class="cls-2" d="M650.13,632.06h.51l-.3,4.45h-11.84v-.49h.29c.71,0,1.17-.09,1.38-.28.21-.19.34-.43.4-.72s.08-1.04.08-2.23v-7.01c0-1.09-.03-1.81-.09-2.15-.06-.34-.2-.59-.41-.72-.21-.14-.67-.21-1.36-.21v-.48h10.22l.34,3.56h-.49c-.23-1-.5-1.71-.83-2.12-.33-.42-.72-.68-1.17-.79-.45-.11-1.17-.16-2.17-.16h-1.98v6h1.52c.7,0,1.18-.06,1.46-.18s.46-.3.55-.54c.09-.24.13-.72.13-1.42h.5v4.89h-.5c0-.79-.07-1.33-.2-1.6-.13-.27-.33-.45-.59-.53-.26-.08-.69-.12-1.3-.12h-1.57v3.38c0,1.69.11,2.69.33,2.99.22.3.8.45,1.76.45h1.06c.75,0,1.37-.1,1.86-.29.48-.19.95-.59,1.39-1.19.44-.6.79-1.43,1.04-2.48Z"/>
          <path class="cls-2" d="M672.13,631.24h-5.43l-.37.91c-.55,1.31-.82,2.17-.82,2.57,0,.43.15.75.44.98.29.22.67.33,1.12.33v.49h-4.25v-.49c.63-.1,1.1-.32,1.41-.67.31-.35.68-1.08,1.12-2.2.04-.11.21-.51.51-1.22l4.15-9.92h.41l4.78,11.36.65,1.5c.15.34.35.6.6.8s.62.31,1.12.36v.49h-5.62v-.49c.69,0,1.15-.05,1.4-.15.24-.1.36-.3.36-.61,0-.15-.16-.62-.48-1.38l-1.1-2.65ZM671.96,630.77l-2.53-6.09-2.52,6.09h5.05Z"/>
          <path class="cls-2" d="M704.65,636.51h-3.85c-.68-.48-1.72-1.73-3.13-3.75-.45-.65-.92-1.27-1.4-1.86-.49-.59-.82-.96-1-1.09-.18-.13-.47-.2-.86-.2h-.57v3.17c0,1.12.03,1.86.08,2.21.05.35.19.61.42.78s.67.25,1.31.25h.69v.49h-6.84v-.49h.46c.61,0,1.04-.08,1.27-.23.23-.16.38-.4.45-.72.06-.33.1-1.09.1-2.28v-7.01c0-1.14-.03-1.87-.1-2.2-.06-.33-.2-.56-.42-.69-.22-.13-.69-.19-1.41-.19h-.24v-.48l2.05-.11c1.36-.06,2.45-.1,3.25-.1,1.36,0,2.47.13,3.33.38.86.25,1.54.67,2.07,1.24.53.58.79,1.27.79,2.07,0,.93-.34,1.73-1.03,2.39s-1.7,1.07-3.04,1.23c.6.29,1.56,1.33,2.89,3.12,1.08,1.46,1.93,2.41,2.55,2.86s1.35.69,2.19.72v.49ZM693.84,629.13c.53-.01,1.07-.04,1.63-.06.56-.03,1.05-.11,1.46-.23.42-.13.75-.31,1.01-.55.26-.24.46-.56.61-.95.15-.39.22-.88.22-1.46,0-1.01-.25-1.81-.75-2.42-.5-.6-1.6-.91-3.29-.91-.26,0-.56.01-.9.04v6.54Z"/>
          <path class="cls-2" d="M728.23,631.15h.45v5.01h-.45c-.13-.57-.36-1.07-.69-1.51-1.26,1.42-2.87,2.13-4.82,2.13-2.07,0-3.76-.65-5.07-1.96-1.31-1.31-1.97-3.04-1.97-5.19,0-1.41.3-2.74.91-3.99s1.45-2.17,2.53-2.78c1.08-.6,2.27-.91,3.56-.91,1.07,0,2.04.22,2.9.66.87.44,1.52.93,1.95,1.46.3-.6.49-1.22.55-1.86h.46l.12,5.42h-.45c-.32-1.93-.96-3.27-1.94-4.02-.97-.75-2.07-1.13-3.29-1.13-1.5,0-2.69.61-3.57,1.82-.88,1.22-1.32,2.96-1.32,5.22,0,2.14.48,3.79,1.45,4.93s2.16,1.71,3.6,1.71c.77,0,1.55-.19,2.35-.56.8-.37,1.44-1,1.9-1.89.47-.89.74-1.75.83-2.58Z"/>
          <path class="cls-2" d="M754.01,629.34h-7.47v3.45c0,1.12.03,1.86.08,2.21.06.35.2.61.43.78s.66.25,1.3.25h.37v.49h-6.43v-.49h.37c.61,0,1.04-.08,1.27-.23.23-.16.39-.4.45-.72s.1-1.09.1-2.28v-7.01c0-1.14-.03-1.87-.1-2.2-.07-.33-.21-.56-.42-.69-.21-.13-.68-.19-1.41-.19h-.26v-.48h6.43v.48h-.26c-.7,0-1.15.06-1.37.17-.22.12-.36.33-.44.65s-.11,1.07-.11,2.26v2.84h7.47v-2.84c0-1.14-.03-1.87-.1-2.2-.06-.33-.2-.56-.42-.69-.21-.13-.68-.19-1.41-.19h-.38v-.48h6.51v.48h-.21c-.7,0-1.16.06-1.38.17-.22.12-.37.33-.44.65-.07.32-.11,1.07-.11,2.26v7.01c0,1.12.03,1.86.08,2.21.05.35.2.61.43.78s.67.25,1.31.25h.33v.49h-6.51v-.49h.49c.61,0,1.03-.08,1.26-.23.23-.16.38-.4.45-.72.06-.33.1-1.09.1-2.28v-3.45Z"/>
        </g>
        <g>
          <path class="cls-2" d="M247.64,601.5h-1.77l-13.35-30.75c-.25-.55-.64-1.5-1.17-2.85-.74-1.83-1.52-3.05-2.34-3.68-.82-.63-2.14-.96-3.96-1v-1.31h16.66v1.31c-2.07,0-3.46.15-4.18.46-.71.3-1.07.88-1.07,1.74,0,.55.45,1.84,1.34,3.88l11.12,25.67,8.93-21.37c1.5-3.58,2.25-5.9,2.25-6.99,0-2.19-1.55-3.32-4.65-3.39v-1.31h11.81v1.31c-1.2.04-2.25.47-3.17,1.28-.91.82-1.7,2.02-2.37,3.59l-2.6,6.08-11.49,27.33Z"/>
          <path class="cls-2" d="M270.72,563.22v-1.31h17.69v1.31h-.83c-1.9,0-3.15.16-3.74.47-.59.31-.98.9-1.18,1.75-.2.86-.3,2.89-.3,6.1v18.97c0,3.04.07,5.04.21,5.98.14.94.52,1.64,1.14,2.1.62.46,1.8.68,3.55.68h1.14v1.31h-17.69v-1.31h1.14c1.66,0,2.8-.21,3.44-.63s1.04-1.07,1.21-1.95c.17-.88.26-2.94.26-6.18v-18.97c0-3.08-.08-5.07-.26-5.96-.17-.89-.55-1.51-1.14-1.85-.59-.34-1.86-.51-3.82-.51h-.83Z"/>
          <path class="cls-2" d="M328.56,586.07h1.23v13.55h-1.23c-.34-1.54-.96-2.9-1.85-4.08-3.4,3.84-7.75,5.76-13.04,5.76-5.59,0-10.16-1.77-13.71-5.31s-5.32-8.21-5.32-14.03c0-3.82.82-7.42,2.45-10.8,1.63-3.38,3.92-5.88,6.85-7.52,2.93-1.63,6.14-2.45,9.64-2.45,2.89,0,5.51.59,7.86,1.78,2.35,1.19,4.1,2.51,5.26,3.95.82-1.62,1.31-3.29,1.48-5.02h1.26l.34,14.66h-1.23c-.86-5.21-2.6-8.83-5.23-10.87-2.63-2.03-5.61-3.05-8.91-3.05-4.05,0-7.27,1.64-9.65,4.93-2.39,3.29-3.58,8-3.58,14.12,0,5.8,1.3,10.25,3.91,13.33,2.6,3.09,5.85,4.63,9.73,4.63,2.07,0,4.19-.5,6.36-1.51,2.17-1.01,3.88-2.71,5.15-5.12,1.26-2.41,2.01-4.73,2.24-6.97Z"/>
          <path class="cls-2" d="M338.18,571.2h-1.31l.2-9.3h37.54l.2,9.3h-1.23c-.44-2.55-1.04-4.39-1.8-5.52-.76-1.13-1.58-1.83-2.45-2.08-.88-.26-2.37-.38-4.48-.38h-6.22v27.3c0,3.02.07,5.01.21,5.96s.53,1.65,1.15,2.11c.63.46,1.81.68,3.54.68h1.88v1.31h-19.28v-1.31h2c1.65,0,2.8-.21,3.44-.63s1.05-1.07,1.23-1.95c.18-.88.27-2.94.27-6.18v-27.3h-5.73c-2.49,0-4.17.12-5.02.36-.86.24-1.66.96-2.41,2.15-.75,1.2-1.33,3.02-1.72,5.48Z"/>
          <path class="cls-2" d="M378.21,580.99c0-5.97,2-10.76,5.99-14.38,3.99-3.61,8.98-5.42,14.95-5.42s11.06,1.79,15.1,5.36c4.04,3.58,6.06,8.45,6.06,14.63s-1.94,10.84-5.8,14.55c-3.87,3.71-8.96,5.56-15.28,5.56s-11.18-1.85-15.12-5.56c-3.94-3.71-5.9-8.62-5.9-14.75ZM384.75,581.19c0,6.22,1.24,10.89,3.72,14,2.48,3.12,6.2,4.68,11.17,4.68,4.36,0,7.8-1.56,10.33-4.68,2.53-3.12,3.79-7.77,3.79-13.95s-1.25-10.62-3.74-13.82c-2.49-3.2-6.1-4.81-10.84-4.81s-8.23,1.56-10.71,4.69c-2.48,3.13-3.72,7.75-3.72,13.88Z"/>
          <path class="cls-2" d="M426.55,563.22v-1.31h17.69v1.31h-.83c-1.9,0-3.15.16-3.74.47s-.98.9-1.18,1.75c-.2.86-.3,2.89-.3,6.1v18.97c0,3.04.07,5.04.21,5.98.14.94.52,1.64,1.14,2.1.62.46,1.8.68,3.55.68h1.14v1.31h-17.69v-1.31h1.14c1.65,0,2.8-.21,3.44-.63s1.04-1.07,1.21-1.95c.17-.88.26-2.94.26-6.18v-18.97c0-3.08-.09-5.07-.26-5.96-.17-.89-.55-1.51-1.14-1.85-.59-.34-1.86-.51-3.82-.51h-.83Z"/>
          <path class="cls-2" d="M489.94,600.58h-10.41c-1.85-1.29-4.67-4.68-8.47-10.15-1.22-1.75-2.48-3.43-3.79-5.04-1.31-1.61-2.22-2.59-2.71-2.94-.49-.35-1.26-.53-2.31-.53h-1.54v8.59c0,3.04.07,5.04.21,5.98.14.94.52,1.64,1.14,2.1.62.46,1.8.68,3.55.68h1.85v1.31h-18.51v-1.31h1.25c1.65,0,2.8-.21,3.44-.63s1.04-1.07,1.21-1.95c.17-.88.26-2.94.26-6.18v-18.97c0-3.08-.09-5.07-.26-5.96-.17-.89-.55-1.51-1.14-1.85-.59-.34-1.87-.51-3.82-.51h-.66v-1.31l5.53-.29c3.69-.17,6.62-.26,8.79-.26,3.69,0,6.69.34,9,1.03s4.18,1.81,5.61,3.37c1.43,1.56,2.14,3.42,2.14,5.59,0,2.53-.93,4.69-2.79,6.47-1.86,1.79-4.6,2.9-8.21,3.34,1.62.78,4.22,3.59,7.81,8.44,2.93,3.94,5.23,6.51,6.9,7.73,1.67,1.22,3.65,1.86,5.93,1.94v1.31ZM460.71,580.62c1.43-.04,2.9-.1,4.42-.17,1.52-.08,2.84-.29,3.97-.63,1.12-.34,2.03-.84,2.72-1.5.7-.66,1.24-1.52,1.64-2.58.4-1.07.6-2.38.6-3.94,0-2.72-.68-4.9-2.04-6.53-1.36-1.64-4.32-2.45-8.89-2.45-.7,0-1.51.04-2.42.11v17.69Z"/>
          <path class="cls-2" d="M525.15,588.55h1.37l-.83,12.04h-32.03v-1.31h.8c1.92,0,3.16-.26,3.72-.77.56-.51.92-1.17,1.07-1.95s.23-2.8.23-6.03v-18.97c0-2.95-.08-4.89-.24-5.82-.16-.93-.53-1.58-1.11-1.95-.58-.37-1.8-.56-3.67-.56v-1.31h27.64l.91,9.64h-1.34c-.61-2.7-1.35-4.62-2.24-5.75-.88-1.13-1.94-1.84-3.15-2.14s-3.18-.44-5.88-.44h-5.36v16.23h4.11c1.88,0,3.2-.16,3.95-.49.75-.32,1.24-.81,1.48-1.47s.36-1.93.36-3.84h1.34v13.24h-1.34c0-2.15-.18-3.59-.54-4.32-.36-.73-.89-1.21-1.58-1.43-.7-.22-1.87-.33-3.52-.33h-4.25v9.16c0,4.58.29,7.28.88,8.09.59.81,2.18,1.21,4.76,1.21h2.88c2.03,0,3.71-.26,5.02-.78,1.31-.52,2.56-1.6,3.75-3.22,1.19-1.62,2.13-3.86,2.81-6.72Z"/>
          <path class="cls-2" d="M559.87,582.39v8.13c0,3.04.07,5.04.21,5.98.14.94.53,1.64,1.15,2.1.63.46,1.81.68,3.54.68h1.28v1.31h-17.71v-1.31h1.03c1.65,0,2.8-.21,3.44-.63s1.04-1.07,1.21-1.95c.17-.88.26-2.94.26-6.18v-18.97c0-3.08-.09-5.07-.26-5.96-.17-.89-.55-1.51-1.14-1.85-.59-.34-1.86-.51-3.82-.51h-.71v-1.31l4.85-.17c3.88-.13,6.9-.2,9.07-.2,3.99,0,7.07.31,9.23.94,2.16.63,3.93,1.74,5.31,3.34s2.07,3.61,2.07,6.05c0,2.11-.47,3.97-1.41,5.59-.94,1.62-2.29,2.84-4.05,3.68-1.76.84-4.85,1.26-9.29,1.26h-4.25ZM559.87,580.96h2.77c2.22,0,4.02-.22,5.39-.67,1.37-.45,2.51-1.38,3.42-2.81.91-1.43,1.37-3.19,1.37-5.28,0-3.2-.79-5.54-2.35-7.03-1.57-1.49-4.11-2.24-7.63-2.24-1.29,0-2.28.04-2.97.11v17.91Z"/>
          <path class="cls-2" d="M600.84,586.32h-14.69l-1,2.45c-1.48,3.56-2.22,5.88-2.22,6.96,0,1.16.39,2.04,1.18,2.64.79.6,1.8.9,3.04.9v1.31h-11.5v-1.31c1.71-.27,2.98-.87,3.82-1.81.84-.94,1.84-2.92,3.02-5.95.1-.29.55-1.39,1.37-3.31l11.24-26.84h1.11l12.92,30.72,1.77,4.05c.4.91.94,1.63,1.61,2.15.68.52,1.69.85,3.04.98v1.31h-15.21v-1.31c1.87,0,3.12-.14,3.78-.41.65-.28.98-.82.98-1.64,0-.42-.44-1.66-1.31-3.74l-2.97-7.16ZM600.35,585.04l-6.85-16.49-6.82,16.49h13.66Z"/>
          <path class="cls-2" d="M659.41,600.58h-10.41c-1.85-1.29-4.67-4.68-8.47-10.15-1.22-1.75-2.48-3.43-3.79-5.04-1.31-1.61-2.22-2.59-2.71-2.94-.49-.35-1.26-.53-2.31-.53h-1.54v8.59c0,3.04.07,5.04.21,5.98.14.94.52,1.64,1.14,2.1.62.46,1.8.68,3.55.68h1.85v1.31h-18.51v-1.31h1.25c1.65,0,2.8-.21,3.44-.63s1.04-1.07,1.21-1.95c.17-.88.26-2.94.26-6.18v-18.97c0-3.08-.09-5.07-.26-5.96-.17-.89-.55-1.51-1.14-1.85-.59-.34-1.87-.51-3.82-.51h-.66v-1.31l5.53-.29c3.69-.17,6.62-.26,8.79-.26,3.69,0,6.69.34,9,1.03s4.18,1.81,5.61,3.37c1.43,1.56,2.14,3.42,2.14,5.59,0,2.53-.93,4.69-2.79,6.47-1.86,1.79-4.6,2.9-8.21,3.34,1.62.78,4.22,3.59,7.81,8.44,2.93,3.94,5.23,6.51,6.9,7.73,1.67,1.22,3.65,1.86,5.93,1.94v1.31ZM630.18,580.62c1.43-.04,2.9-.1,4.42-.17,1.52-.08,2.84-.29,3.97-.63,1.12-.34,2.03-.84,2.72-1.5.7-.66,1.24-1.52,1.64-2.58.4-1.07.6-2.38.6-3.94,0-2.72-.68-4.9-2.04-6.53-1.36-1.64-4.32-2.45-8.89-2.45-.7,0-1.51.04-2.42.11v17.69Z"/>
          <path class="cls-2" d="M658.11,571.2h-1.31l.2-9.3h37.54l.2,9.3h-1.23c-.44-2.55-1.04-4.39-1.8-5.52-.76-1.13-1.58-1.83-2.45-2.08s-2.37-.38-4.48-.38h-6.22v27.3c0,3.02.07,5.01.21,5.96s.53,1.65,1.16,2.11c.63.46,1.8.68,3.54.68h1.88v1.31h-19.28v-1.31h2c1.65,0,2.8-.21,3.44-.63s1.04-1.07,1.23-1.95c.18-.88.27-2.94.27-6.18v-27.3h-5.73c-2.49,0-4.16.12-5.02.36-.86.24-1.66.96-2.41,2.15-.75,1.2-1.33,3.02-1.73,5.48Z"/>
          <path class="cls-2" d="M733.8,601.47l-27.36-36.25v26.84c0,2.23.11,3.69.33,4.39.22.7.84,1.35,1.87,1.94,1.03.59,2.57.88,4.62.88v1.31h-14.43v-1.31c1.85-.13,3.25-.47,4.22-1.01.97-.54,1.54-1.13,1.72-1.75.18-.63.27-2.11.27-4.45v-20.51c0-2.97-.14-4.95-.41-5.96-.28-1.01-.71-1.65-1.31-1.94-.6-.29-1.94-.43-4.01-.43v-1.31h11.41l22.9,30.26v-23.13c0-1.71-.18-2.91-.53-3.59s-1.07-1.23-2.15-1.63-2.39-.6-3.91-.6v-1.31h14.04v1.31c-1.64.13-2.92.45-3.87.94s-1.54,1.09-1.8,1.78c-.26.69-.38,1.87-.38,3.52v32h-1.23Z"/>
          <path class="cls-2" d="M776.74,588.55h1.37l-.83,12.04h-32.03v-1.31h.8c1.92,0,3.16-.26,3.72-.77.56-.51.92-1.17,1.07-1.95.15-.79.23-2.8.23-6.03v-18.97c0-2.95-.08-4.89-.24-5.82-.16-.93-.53-1.58-1.11-1.95-.58-.37-1.8-.56-3.67-.56v-1.31h27.64l.91,9.64h-1.34c-.61-2.7-1.36-4.62-2.24-5.75-.88-1.13-1.94-1.84-3.15-2.14s-3.18-.44-5.88-.44h-5.36v16.23h4.11c1.88,0,3.2-.16,3.95-.49.75-.32,1.25-.81,1.48-1.47.24-.66.36-1.93.36-3.84h1.34v13.24h-1.34c0-2.15-.18-3.59-.54-4.32-.36-.73-.89-1.21-1.58-1.43s-1.87-.33-3.52-.33h-4.25v9.16c0,4.58.29,7.28.88,8.09.59.81,2.18,1.21,4.76,1.21h2.88c2.04,0,3.71-.26,5.02-.78,1.31-.52,2.56-1.6,3.75-3.22,1.19-1.62,2.12-3.86,2.81-6.72Z"/>
          <path class="cls-2" d="M824.13,600.58h-10.41c-1.85-1.29-4.67-4.68-8.47-10.15-1.22-1.75-2.48-3.43-3.79-5.04-1.31-1.61-2.22-2.59-2.71-2.94-.49-.35-1.26-.53-2.31-.53h-1.54v8.59c0,3.04.07,5.04.21,5.98.14.94.52,1.64,1.14,2.1.62.46,1.8.68,3.55.68h1.85v1.31h-18.51v-1.31h1.25c1.65,0,2.8-.21,3.44-.63s1.04-1.07,1.21-1.95c.17-.88.26-2.94.26-6.18v-18.97c0-3.08-.09-5.07-.26-5.96-.17-.89-.55-1.51-1.14-1.85-.59-.34-1.87-.51-3.82-.51h-.66v-1.31l5.53-.29c3.69-.17,6.62-.26,8.79-.26,3.69,0,6.69.34,9,1.03s4.18,1.81,5.61,3.37c1.43,1.56,2.14,3.42,2.14,5.59,0,2.53-.93,4.69-2.79,6.47-1.86,1.79-4.6,2.9-8.21,3.34,1.62.78,4.22,3.59,7.81,8.44,2.93,3.94,5.23,6.51,6.9,7.73,1.67,1.22,3.65,1.86,5.93,1.94v1.31ZM794.9,580.62c1.43-.04,2.9-.1,4.42-.17,1.52-.08,2.84-.29,3.97-.63,1.12-.34,2.03-.84,2.72-1.5.7-.66,1.24-1.52,1.64-2.58.4-1.07.6-2.38.6-3.94,0-2.72-.68-4.9-2.04-6.53-1.36-1.64-4.32-2.45-8.89-2.45-.7,0-1.51.04-2.42.11v17.69Z"/>
          <path class="cls-2" d="M829.37,600.18v-12.44h1.43c1.62,8.1,5.45,12.15,11.49,12.15,2.72,0,4.83-.77,6.32-2.33,1.49-1.55,2.24-3.28,2.24-5.21s-.66-3.57-1.97-4.88c-1.31-1.29-3.71-2.68-7.19-4.17-3.1-1.33-5.44-2.5-7.02-3.49-1.58-1-2.81-2.3-3.69-3.89-.88-1.6-1.33-3.3-1.33-5.11,0-2.76.96-5.05,2.87-6.89,1.91-1.83,4.33-2.75,7.26-2.75,1.64,0,3.18.27,4.62.8s2.93,1.64,4.45,3.31c.87-1.04,1.37-2.18,1.48-3.39h1.26v10.13h-1.26c-.72-2.95-2-5.27-3.84-6.96-1.84-1.69-3.96-2.54-6.38-2.54s-3.99.62-5.06,1.87c-1.07,1.25-1.61,2.61-1.61,4.09,0,1.79.68,3.3,2.03,4.54,1.33,1.25,3.74,2.66,7.22,4.22,3.33,1.48,5.75,2.68,7.26,3.58s2.72,2.15,3.64,3.75c.91,1.6,1.37,3.44,1.37,5.53,0,3.31-1.1,6-3.31,8.07-2.21,2.07-5.15,3.11-8.84,3.11-4.24,0-7.78-1.63-10.61-4.88-.63.89-1.09,2.15-1.4,3.77h-1.43Z"/>
        </g>
        <polygon class="cls-2" points="813.41 538.04 808.61 533.58 793.99 532.8 792.32 526.94 743.47 529.95 719.2 520.16 689.34 495.49 663.69 486.77 654.85 474.31 647.96 474.75 643.72 472.88 626.86 475.3 623.16 471.35 609.76 473.29 607.72 468.61 595.18 470.29 587.67 463.5 578.39 464.8 573.72 457.01 552.07 464.93 548.12 462.99 538.42 463.34 522.38 461.02 510.63 466.7 504.37 473.52 500.92 473.59 463.36 491.07 454.04 491.26 449.63 496.01 431.25 500.65 419.46 501.45 396.75 505.58 389.29 509.94 377.77 515.8 373.36 515.49 356.4 522.05 352.15 520.18 340.89 525.9 323.52 524.76 279.28 526.95 258.21 530.51 257.72 527.66 279.05 524.07 323.54 521.87 323.62 521.87 340.29 522.97 352.06 516.99 356.47 518.93 372.92 512.56 377.18 512.87 387.9 507.41 395.74 502.83 395.99 502.79 419.19 498.57 430.93 497.78 448.09 493.42 452.76 488.41 462.69 488.19 500.25 470.72 503.08 470.66 508.88 464.34 521.91 458.03 538.58 460.45 548.74 460.08 552.24 461.8 574.96 453.48 579.88 461.67 588.6 460.46 596.12 467.25 609.49 465.46 611.53 470.11 624.24 468.28 627.94 472.23 644.13 469.9 648.48 471.82 656.27 471.33 665.5 484.34 690.77 492.93 690.98 493.1 720.69 517.65 743.94 527.03 794.46 523.92 796.2 530.03 809.81 530.76 814.52 535.13 824.51 534.92 824.58 537.81 813.41 538.04"/>
        <polygon class="cls-2" points="568.28 455.28 568.13 447.97 571.2 447.9 571.16 446.07 568.09 446.14 568.03 443.16 566.2 443.2 566.26 446.18 563.2 446.24 563.23 448.07 566.3 448.01 566.47 455.95 568.28 455.28"/>
      </g>
    </g>
  </g>
</svg>