<?xml version="1.0" encoding="UTF-8"?>
<svg id="Calque_2" data-name="Calque 2" xmlns="http://www.w3.org/2000/svg" viewBox="0 0 963.79 296.34">
  <defs>
    <style>
      .cls-1 {
        fill: #fff;
      }
    </style>
  </defs>
  <g id="Calque_1-2" data-name="Calque 1">
    <g>
      <g>
        <path class="cls-1" d="M166.08,292.06l7.97-18.1h6.71v.74h-.81c-1.08,0-1.78.09-2.11.27-.33.18-.56.51-.67.99s-.17,1.63-.17,3.45v10.73c0,1.72.04,2.85.13,3.38.09.53.3.93.65,1.19s1.02.39,2.01.39h.97v.74h-10.46v-.74h.78c.92,0,1.57-.12,1.93-.35.36-.24.59-.61.69-1.11s.15-1.66.15-3.49v-13.92l-8.66,19.62h-.76l-8.73-19.62v12.81c0,1.75.05,2.95.16,3.58.11.64.44,1.19,1,1.67s1.34.75,2.35.81v.74h-7.82v-.74c.94-.05,1.69-.31,2.28-.77.59-.46.94-1.02,1.07-1.69s.19-1.9.19-3.71v-9.52c0-1.74-.05-2.87-.16-3.37-.1-.51-.32-.86-.65-1.05-.33-.19-1.05-.29-2.15-.29h-.59v-.74h6.66l8.02,18.1Z"/>
        <path class="cls-1" d="M213.26,287.77h-8.31l-.56,1.39c-.84,2.01-1.26,3.32-1.26,3.94,0,.66.22,1.15.67,1.49.45.34,1.02.51,1.72.51v.74h-6.5v-.74c.97-.15,1.69-.49,2.16-1.02.47-.53,1.04-1.65,1.71-3.36.05-.16.31-.78.78-1.87l6.36-15.18h.63l7.31,17.38,1,2.29c.23.52.53.92.91,1.22s.95.48,1.72.56v.74h-8.6v-.74c1.05,0,1.77-.08,2.14-.23.37-.16.56-.47.56-.93,0-.24-.25-.94-.74-2.11l-1.68-4.05ZM212.99,287.05l-3.87-9.33-3.85,9.33h7.73Z"/>
        <path class="cls-1" d="M259.34,296.34l-15.47-20.51v15.18c0,1.26.06,2.09.19,2.48.12.4.48.76,1.06,1.1.58.33,1.45.5,2.61.5v.74h-8.16v-.74c1.04-.07,1.84-.27,2.39-.57.55-.31.88-.64.98-.99.1-.36.15-1.19.15-2.52v-11.6c0-1.68-.08-2.8-.23-3.37-.16-.57-.4-.94-.74-1.1-.34-.16-1.1-.24-2.27-.24v-.74h6.45l12.95,17.12v-13.09c0-.97-.1-1.65-.3-2.03-.2-.39-.6-.69-1.22-.92-.62-.23-1.35-.34-2.21-.34v-.74h7.94v.74c-.92.08-1.65.25-2.18.53s-.87.62-1.02,1.01c-.15.39-.22,1.06-.22,1.99v18.1h-.69Z"/>
        <path class="cls-1" d="M294.73,287.77h-8.31l-.56,1.39c-.84,2.01-1.26,3.32-1.26,3.94,0,.66.22,1.15.67,1.49.45.34,1.02.51,1.72.51v.74h-6.5v-.74c.97-.15,1.69-.49,2.16-1.02.47-.53,1.04-1.65,1.71-3.36.05-.16.31-.78.78-1.87l6.36-15.18h.63l7.31,17.38,1,2.29c.23.52.53.92.91,1.22s.95.48,1.72.56v.74h-8.6v-.74c1.05,0,1.77-.08,2.14-.23.37-.16.56-.47.56-.93,0-.24-.25-.94-.74-2.11l-1.68-4.05ZM294.45,287.05l-3.87-9.33-3.85,9.33h7.73Z"/>
        <path class="cls-1" d="M334.48,286.5h9.44v.77c-1.04,0-1.75.1-2.12.32-.37.21-.62.56-.74,1.05-.12.49-.18,1.67-.18,3.56v2.32c-.26-.04-.49-.07-.69-.07-.83,0-1.92.25-3.26.76-1.83.69-3.52,1.03-5.08,1.03-3.13,0-5.73-1.03-7.81-3.09-2.08-2.06-3.11-4.67-3.11-7.83s.99-5.87,2.97-8.23c1.98-2.35,4.67-3.53,8.07-3.53,2.93,0,5.35,1.08,7.26,3.23.36-.75.58-1.56.68-2.44h.77v7.31h-.77c-.31-2.25-1.17-4.03-2.56-5.34-1.39-1.31-3.08-1.97-5.07-1.97s-3.85.76-5.37,2.29-2.29,4.24-2.29,8.13.74,6.63,2.21,8.25c1.47,1.62,3.3,2.43,5.49,2.43,1.12,0,2.13-.23,3.05-.69s1.54-1.01,1.87-1.67c.33-.66.5-1.48.5-2.48,0-1.17-.08-1.95-.24-2.35-.16-.39-.39-.66-.72-.79s-.91-.2-1.78-.2h-.52v-.77Z"/>
        <path class="cls-1" d="M381.18,289.03h.77l-.47,6.81h-18.12v-.74h.45c1.08,0,1.79-.14,2.1-.43.32-.29.52-.66.61-1.11s.13-1.58.13-3.41v-10.73c0-1.67-.04-2.76-.14-3.29-.09-.53-.3-.9-.63-1.11-.33-.21-1.02-.32-2.07-.32v-.74h15.64l.51,5.45h-.76c-.35-1.53-.77-2.61-1.27-3.25-.5-.64-1.1-1.04-1.78-1.21-.69-.17-1.8-.25-3.32-.25h-3.03v9.18h2.32c1.07,0,1.81-.09,2.24-.27s.71-.46.84-.83c.13-.37.2-1.1.2-2.17h.76v7.49h-.76c0-1.22-.1-2.03-.3-2.44-.21-.41-.5-.68-.9-.81-.39-.12-1.05-.19-1.99-.19h-2.4v5.18c0,2.59.17,4.12.5,4.57.33.46,1.23.69,2.7.69h1.63c1.15,0,2.1-.15,2.84-.44.74-.3,1.45-.9,2.12-1.82.67-.92,1.2-2.19,1.59-3.8Z"/>
        <path class="cls-1" d="M415.91,292.06l7.97-18.1h6.71v.74h-.81c-1.08,0-1.78.09-2.12.27-.33.18-.56.51-.67.99-.11.48-.17,1.63-.17,3.45v10.73c0,1.72.04,2.85.13,3.38.09.53.3.93.65,1.19s1.02.39,2.01.39h.97v.74h-10.46v-.74h.77c.93,0,1.57-.12,1.93-.35.36-.24.59-.61.69-1.11.1-.5.16-1.66.16-3.49v-13.92l-8.67,19.62h-.76l-8.73-19.62v12.81c0,1.75.05,2.95.16,3.58.11.64.44,1.19,1,1.67.56.48,1.34.75,2.35.81v.74h-7.83v-.74c.94-.05,1.7-.31,2.28-.77s.94-1.02,1.07-1.69.19-1.9.19-3.71v-9.52c0-1.74-.05-2.87-.15-3.37-.1-.51-.32-.86-.65-1.05-.33-.19-1.05-.29-2.15-.29h-.6v-.74h6.66l8.02,18.1Z"/>
        <path class="cls-1" d="M467.69,289.03h.77l-.47,6.81h-18.12v-.74h.45c1.08,0,1.79-.14,2.1-.43.32-.29.52-.66.61-1.11s.13-1.58.13-3.41v-10.73c0-1.67-.04-2.76-.14-3.29-.09-.53-.3-.9-.63-1.11-.33-.21-1.02-.32-2.07-.32v-.74h15.64l.51,5.45h-.76c-.35-1.53-.77-2.61-1.27-3.25-.5-.64-1.1-1.04-1.78-1.21-.69-.17-1.8-.25-3.32-.25h-3.03v9.18h2.32c1.07,0,1.81-.09,2.24-.27s.71-.46.84-.83c.13-.37.2-1.1.2-2.17h.76v7.49h-.76c0-1.22-.1-2.03-.3-2.44-.21-.41-.5-.68-.9-.81-.39-.12-1.05-.19-1.99-.19h-2.4v5.18c0,2.59.17,4.12.5,4.57.33.46,1.23.69,2.7.69h1.63c1.15,0,2.1-.15,2.84-.44.74-.3,1.45-.9,2.12-1.82.67-.92,1.2-2.19,1.59-3.8Z"/>
        <path class="cls-1" d="M507.44,296.34l-15.47-20.51v15.18c0,1.26.06,2.09.19,2.48.12.4.48.76,1.06,1.1.58.33,1.45.5,2.61.5v.74h-8.16v-.74c1.04-.07,1.84-.27,2.39-.57.55-.31.88-.64.98-.99.1-.36.15-1.19.15-2.52v-11.6c0-1.68-.08-2.8-.23-3.37-.16-.57-.4-.94-.74-1.1-.34-.16-1.1-.24-2.27-.24v-.74h6.45l12.95,17.12v-13.09c0-.97-.1-1.65-.3-2.03-.2-.39-.6-.69-1.22-.92-.62-.23-1.35-.34-2.21-.34v-.74h7.94v.74c-.92.08-1.65.25-2.18.53s-.87.62-1.02,1.01c-.15.39-.22,1.06-.22,1.99v18.1h-.69Z"/>
        <path class="cls-1" d="M531.07,279.22h-.74l.11-5.26h21.24l.11,5.26h-.69c-.25-1.44-.59-2.48-1.02-3.12-.43-.64-.89-1.03-1.39-1.18-.5-.14-1.34-.22-2.53-.22h-3.52v15.44c0,1.71.04,2.83.12,3.37s.3.94.65,1.19,1.02.39,2,.39h1.06v.74h-10.91v-.74h1.13c.94,0,1.58-.12,1.95-.35.36-.24.59-.61.69-1.11s.15-1.66.15-3.49v-15.44h-3.24c-1.41,0-2.35.07-2.84.2s-.94.54-1.36,1.22c-.43.68-.75,1.71-.98,3.1Z"/>
        <path class="cls-1" d="M597.94,295.61v-7.03h.81c.91,4.58,3.08,6.87,6.5,6.87,1.54,0,2.73-.44,3.57-1.31.84-.88,1.26-1.86,1.26-2.95s-.37-2.02-1.11-2.76c-.74-.73-2.1-1.52-4.07-2.36-1.75-.75-3.08-1.41-3.97-1.98s-1.59-1.3-2.09-2.2c-.5-.9-.75-1.87-.75-2.89,0-1.56.54-2.86,1.62-3.9,1.08-1.04,2.45-1.56,4.11-1.56.92,0,1.8.15,2.61.45.82.3,1.66.92,2.52,1.87.5-.59.78-1.23.84-1.92h.71v5.73h-.71c-.41-1.67-1.13-2.98-2.17-3.94-1.04-.96-2.24-1.44-3.61-1.44s-2.26.35-2.86,1.06c-.61.71-.91,1.48-.91,2.32,0,1.01.38,1.87,1.14,2.57.75.71,2.12,1.51,4.08,2.39,1.88.84,3.25,1.51,4.11,2.02s1.54,1.22,2.06,2.12c.51.9.77,1.95.77,3.13,0,1.87-.62,3.39-1.87,4.57-1.25,1.17-2.92,1.76-5,1.76-2.4,0-4.4-.92-6-2.76-.35.51-.62,1.22-.79,2.13h-.81Z"/>
        <path class="cls-1" d="M650.4,289.03h.77l-.47,6.81h-18.12v-.74h.45c1.08,0,1.79-.14,2.1-.43.32-.29.52-.66.61-1.11s.13-1.58.13-3.41v-10.73c0-1.67-.04-2.76-.14-3.29-.09-.53-.3-.9-.63-1.11-.33-.21-1.02-.32-2.07-.32v-.74h15.64l.51,5.45h-.76c-.35-1.53-.77-2.61-1.27-3.25-.5-.64-1.1-1.04-1.78-1.21-.69-.17-1.8-.25-3.32-.25h-3.03v9.18h2.32c1.07,0,1.81-.09,2.24-.27s.71-.46.84-.83c.13-.37.2-1.1.2-2.17h.76v7.49h-.76c0-1.22-.1-2.03-.3-2.44-.21-.41-.5-.68-.9-.81-.39-.12-1.05-.19-1.99-.19h-2.4v5.18c0,2.59.17,4.12.5,4.57.33.46,1.23.69,2.7.69h1.63c1.15,0,2.1-.15,2.84-.44.74-.3,1.45-.9,2.12-1.82.67-.92,1.2-2.19,1.59-3.8Z"/>
        <path class="cls-1" d="M684.07,287.77h-8.31l-.56,1.39c-.84,2.01-1.26,3.32-1.26,3.94,0,.66.22,1.15.67,1.49.45.34,1.02.51,1.72.51v.74h-6.5v-.74c.97-.15,1.69-.49,2.16-1.02.47-.53,1.04-1.65,1.71-3.36.05-.16.31-.78.78-1.87l6.36-15.18h.63l7.31,17.38,1,2.29c.23.52.53.92.91,1.22s.95.48,1.72.56v.74h-8.6v-.74c1.05,0,1.77-.08,2.14-.23.37-.16.56-.47.56-.93,0-.24-.25-.94-.74-2.11l-1.68-4.05ZM683.79,287.05l-3.87-9.33-3.85,9.33h7.73Z"/>
        <path class="cls-1" d="M733.82,295.84h-5.89c-1.04-.73-2.64-2.65-4.79-5.74-.69-.99-1.4-1.94-2.15-2.85-.74-.91-1.26-1.46-1.53-1.66-.28-.2-.72-.3-1.31-.3h-.87v4.86c0,1.72.04,2.85.12,3.38.08.53.3.93.65,1.19s1.02.39,2.01.39h1.05v.74h-10.47v-.74h.71c.94,0,1.58-.12,1.95-.35.36-.24.59-.61.68-1.11.1-.5.15-1.66.15-3.49v-10.73c0-1.74-.05-2.87-.15-3.37-.1-.51-.31-.86-.65-1.05-.33-.19-1.05-.29-2.16-.29h-.37v-.74l3.13-.16c2.09-.1,3.74-.15,4.97-.15,2.09,0,3.78.19,5.09.58,1.31.39,2.36,1.02,3.17,1.9.81.88,1.21,1.94,1.21,3.16,0,1.43-.53,2.65-1.58,3.66s-2.6,1.64-4.65,1.89c.91.44,2.39,2.03,4.42,4.78,1.66,2.23,2.96,3.68,3.91,4.37s2.06,1.05,3.36,1.1v.74ZM717.28,284.55c.81-.02,1.64-.05,2.5-.1.86-.04,1.61-.16,2.24-.35.64-.19,1.15-.48,1.54-.85.39-.37.7-.86.93-1.46.23-.6.34-1.34.34-2.23,0-1.54-.39-2.77-1.15-3.7-.77-.92-2.44-1.39-5.03-1.39-.4,0-.85.02-1.37.06v10Z"/>
        <path class="cls-1" d="M769.89,287.63h.69v7.66h-.69c-.19-.87-.54-1.64-1.05-2.31-1.92,2.17-4.38,3.26-7.37,3.26-3.16,0-5.75-1-7.75-3-2.01-2-3.01-4.65-3.01-7.94,0-2.16.46-4.2,1.39-6.11s2.21-3.33,3.87-4.25c1.66-.92,3.47-1.39,5.45-1.39,1.63,0,3.12.34,4.44,1.01,1.33.67,2.32,1.42,2.98,2.23.46-.91.74-1.86.84-2.84h.71l.19,8.29h-.69c-.48-2.95-1.47-5-2.96-6.15-1.49-1.15-3.17-1.73-5.04-1.73-2.29,0-4.11.93-5.46,2.79-1.35,1.86-2.03,4.52-2.03,7.99,0,3.28.74,5.79,2.21,7.54s3.31,2.62,5.5,2.62c1.17,0,2.37-.28,3.6-.85,1.23-.57,2.2-1.53,2.91-2.9.72-1.36,1.14-2.68,1.27-3.94Z"/>
        <path class="cls-1" d="M809.33,284.87h-11.42v5.28c0,1.72.04,2.85.13,3.38.09.53.3.93.65,1.19s1.01.39,1.99.39h.56v.74h-9.84v-.74h.56c.94,0,1.58-.12,1.95-.35.36-.24.59-.61.69-1.11s.15-1.66.15-3.49v-10.73c0-1.74-.05-2.87-.15-3.37-.1-.51-.32-.86-.65-1.05-.33-.19-1.05-.29-2.15-.29h-.4v-.74h9.84v.74h-.4c-1.07,0-1.77.09-2.1.27-.33.18-.56.51-.67.99s-.17,1.63-.17,3.45v4.34h11.42v-4.34c0-1.74-.05-2.87-.15-3.37-.1-.51-.31-.86-.64-1.05-.33-.19-1.05-.29-2.15-.29h-.58v-.74h9.95v.74h-.32c-1.08,0-1.78.09-2.11.27-.33.18-.56.51-.67.99-.11.48-.17,1.63-.17,3.45v10.73c0,1.72.04,2.85.12,3.38.08.53.3.93.65,1.19s1.02.39,2,.39h.5v.74h-9.95v-.74h.76c.93,0,1.57-.12,1.93-.35.36-.24.59-.61.68-1.11.1-.5.15-1.66.15-3.49v-5.28Z"/>
      </g>
      <g>
        <path class="cls-1" d="M34.57,242.26h-2.71l-20.43-47.05c-.38-.84-.97-2.3-1.79-4.36-1.13-2.79-2.33-4.67-3.58-5.63-1.25-.96-3.27-1.47-6.07-1.53v-2.01h25.49v2.01c-3.17,0-5.3.23-6.4.7-1.09.47-1.63,1.35-1.63,2.66,0,.84.68,2.82,2.05,5.94l17.02,39.28,13.66-32.69c2.3-5.47,3.45-9.03,3.45-10.69,0-3.35-2.37-5.08-7.12-5.19v-2.01h18.07v2.01c-1.83.06-3.45.71-4.84,1.96-1.4,1.25-2.61,3.09-3.62,5.5l-3.97,9.3-17.59,41.81Z"/>
        <path class="cls-1" d="M69.89,183.69v-2.01h27.06v2.01h-1.26c-2.91,0-4.82.24-5.72.72-.9.48-1.5,1.37-1.81,2.68-.3,1.31-.46,4.42-.46,9.34v29.02c0,4.66.11,7.7.33,9.14.22,1.44.8,2.51,1.75,3.21.94.7,2.76,1.05,5.43,1.05h1.75v2.01h-27.06v-2.01h1.75c2.53,0,4.29-.32,5.26-.96s1.59-1.64,1.86-2.99c.26-1.35.39-4.5.39-9.45v-29.02c0-4.71-.13-7.75-.39-9.12-.26-1.37-.84-2.31-1.75-2.84-.9-.52-2.85-.79-5.85-.79h-1.27Z"/>
        <path class="cls-1" d="M158.38,218.65h1.88v20.73h-1.88c-.52-2.36-1.47-4.44-2.84-6.24-5.21,5.88-11.86,8.82-19.94,8.82-8.56,0-15.55-2.71-20.97-8.12s-8.14-12.57-8.14-21.47c0-5.85,1.25-11.35,3.75-16.52,2.5-5.17,5.99-9,10.47-11.5,4.48-2.5,9.4-3.75,14.75-3.75,4.42,0,8.43.91,12.02,2.73,3.6,1.82,6.28,3.83,8.05,6.04,1.25-2.47,2.01-5.03,2.27-7.68h1.92l.52,22.43h-1.88c-1.31-7.97-3.98-13.51-8.01-16.63-4.03-3.11-8.58-4.67-13.64-4.67-6.2,0-11.12,2.52-14.77,7.55-3.65,5.03-5.48,12.24-5.48,21.6,0,8.87,1.99,15.68,5.98,20.4,3.98,4.73,8.94,7.09,14.88,7.09,3.17,0,6.42-.77,9.73-2.31,3.31-1.54,5.94-4.15,7.88-7.83,1.93-3.68,3.08-7.24,3.42-10.67Z"/>
        <path class="cls-1" d="M173.11,195.91h-2.01l.3-14.23h57.44l.3,14.23h-1.88c-.67-3.9-1.59-6.71-2.75-8.45-1.17-1.73-2.42-2.79-3.75-3.19-1.34-.39-3.62-.59-6.85-.59h-9.51v41.77c0,4.63.11,7.67.33,9.12s.81,2.53,1.77,3.23c.96.7,2.76,1.05,5.41,1.05h2.88v2.01h-29.5v-2.01h3.06c2.53,0,4.28-.32,5.26-.96s1.6-1.64,1.88-2.99c.28-1.35.42-4.5.42-9.45v-41.77h-8.77c-3.81,0-6.37.18-7.68.55-1.31.36-2.54,1.46-3.69,3.29-1.15,1.83-2.03,4.63-2.64,8.38Z"/>
        <path class="cls-1" d="M234.36,210.88c0-9.14,3.06-16.47,9.17-22,6.11-5.53,13.73-8.29,22.87-8.29s16.93,2.74,23.11,8.2c6.18,5.47,9.28,12.93,9.28,22.39s-2.96,16.58-8.88,22.26c-5.92,5.67-13.71,8.51-23.37,8.51s-17.11-2.84-23.13-8.51c-6.02-5.67-9.03-13.19-9.03-22.56ZM244.35,211.19c0,9.51,1.9,16.66,5.7,21.43,3.8,4.77,9.49,7.16,17.08,7.16,6.66,0,11.93-2.39,15.8-7.16,3.87-4.77,5.81-11.88,5.81-21.34s-1.91-16.24-5.72-21.15c-3.81-4.9-9.34-7.35-16.58-7.35s-12.59,2.39-16.39,7.18c-3.8,4.79-5.7,11.87-5.7,21.23Z"/>
        <path class="cls-1" d="M308.31,183.69v-2.01h27.06v2.01h-1.27c-2.91,0-4.81.24-5.72.72s-1.51,1.37-1.81,2.68c-.3,1.31-.46,4.42-.46,9.34v29.02c0,4.66.11,7.7.33,9.14.22,1.44.8,2.51,1.75,3.21.94.7,2.76,1.05,5.43,1.05h1.75v2.01h-27.06v-2.01h1.75c2.53,0,4.29-.32,5.26-.96s1.59-1.64,1.86-2.99c.26-1.35.39-4.5.39-9.45v-29.02c0-4.71-.13-7.75-.39-9.12-.26-1.37-.85-2.31-1.75-2.84-.9-.52-2.85-.79-5.85-.79h-1.26Z"/>
        <path class="cls-1" d="M405.3,240.87h-15.93c-2.82-1.98-7.15-7.16-12.96-15.54-1.86-2.68-3.8-5.24-5.8-7.7-2.01-2.46-3.39-3.96-4.15-4.49-.76-.54-1.93-.81-3.54-.81h-2.35v13.14c0,4.66.11,7.7.33,9.14.22,1.44.8,2.51,1.75,3.21.94.7,2.76,1.05,5.43,1.05h2.84v2.01h-28.32v-2.01h1.92c2.53,0,4.29-.32,5.26-.96s1.59-1.64,1.86-2.99c.26-1.35.39-4.5.39-9.45v-29.02c0-4.71-.13-7.75-.39-9.12-.26-1.37-.85-2.31-1.75-2.84-.9-.52-2.85-.79-5.85-.79h-1v-2.01l8.47-.44c5.65-.26,10.12-.39,13.44-.39,5.65,0,10.24.52,13.77,1.57s6.4,2.76,8.58,5.15c2.18,2.38,3.27,5.24,3.27,8.55,0,3.87-1.43,7.17-4.28,9.91-2.85,2.74-7.04,4.44-12.57,5.11,2.47,1.19,6.46,5.5,11.96,12.92,4.48,6.02,8,9.97,10.56,11.83,2.56,1.86,5.59,2.85,9.08,2.97v2.01ZM360.57,210.32c2.18-.06,4.43-.15,6.76-.26,2.33-.12,4.35-.44,6.07-.96,1.72-.52,3.1-1.29,4.17-2.29,1.06-1,1.9-2.32,2.51-3.95.61-1.63.92-3.64.92-6.02,0-4.16-1.04-7.49-3.12-9.99-2.08-2.5-6.61-3.75-13.6-3.75-1.08,0-2.31.06-3.71.17v27.06Z"/>
        <path class="cls-1" d="M459.18,222.45h2.09l-1.26,18.42h-49.01v-2.01h1.22c2.94,0,4.84-.39,5.7-1.18.86-.79,1.4-1.78,1.64-2.99s.35-4.28.35-9.23v-29.02c0-4.51-.13-7.48-.37-8.9-.25-1.43-.82-2.42-1.7-2.99-.89-.57-2.76-.85-5.61-.85v-2.01h42.29l1.4,14.75h-2.05c-.93-4.13-2.07-7.06-3.42-8.79-1.35-1.73-2.96-2.82-4.82-3.27s-4.86-.68-8.99-.68h-8.2v24.83h6.28c2.88,0,4.89-.25,6.05-.74,1.15-.49,1.9-1.24,2.27-2.25s.55-2.96.55-5.87h2.05v20.25h-2.05c0-3.29-.28-5.49-.83-6.61-.55-1.12-1.36-1.85-2.42-2.18-1.06-.33-2.86-.5-5.39-.5h-6.5v14.01c0,7.01.45,11.14,1.35,12.37.9,1.24,3.33,1.85,7.29,1.85h4.41c3.11,0,5.67-.4,7.68-1.2,2.01-.8,3.92-2.44,5.74-4.93,1.82-2.49,3.25-5.91,4.3-10.28Z"/>
        <path class="cls-1" d="M512.29,213.02v12.44c0,4.66.11,7.7.33,9.14.22,1.44.81,2.51,1.77,3.21.96.7,2.76,1.05,5.41,1.05h1.96v2.01h-27.1v-2.01h1.57c2.53,0,4.28-.32,5.26-.96s1.59-1.64,1.86-2.99c.26-1.35.39-4.5.39-9.45v-29.02c0-4.71-.13-7.75-.39-9.12-.26-1.37-.84-2.31-1.75-2.84-.9-.52-2.85-.79-5.85-.79h-1.09v-2.01l7.42-.26c5.93-.2,10.56-.3,13.88-.3,6.11,0,10.81.48,14.12,1.44,3.3.96,6.01,2.66,8.12,5.11s3.16,5.53,3.16,9.25c0,3.23-.72,6.08-2.16,8.55-1.44,2.47-3.51,4.35-6.2,5.63-2.69,1.28-7.43,1.92-14.21,1.92h-6.5ZM512.29,210.84h4.23c3.4,0,6.15-.34,8.25-1.03,2.09-.68,3.84-2.12,5.24-4.3,1.4-2.18,2.1-4.87,2.1-8.07,0-4.89-1.2-8.47-3.6-10.76-2.4-2.28-6.29-3.43-11.68-3.43-1.98,0-3.49.06-4.54.17v27.41Z"/>
        <path class="cls-1" d="M574.98,219.04h-22.48l-1.53,3.75c-2.27,5.44-3.4,8.99-3.4,10.65,0,1.78.6,3.12,1.81,4.04,1.21.92,2.76,1.37,4.65,1.37v2.01h-17.59v-2.01c2.62-.41,4.57-1.33,5.85-2.77,1.28-1.44,2.82-4.47,4.63-9.1.15-.44.84-2.12,2.09-5.06l17.2-41.07h1.7l19.77,47.01,2.7,6.2c.61,1.4,1.43,2.5,2.47,3.3,1.03.8,2.58,1.3,4.65,1.5v2.01h-23.26v-2.01c2.85,0,4.78-.21,5.79-.63,1-.42,1.5-1.26,1.5-2.51,0-.64-.67-2.54-2.01-5.72l-4.54-10.96ZM574.24,217.08l-10.47-25.23-10.43,25.23h20.9Z"/>
        <path class="cls-1" d="M664.6,240.87h-15.93c-2.82-1.98-7.15-7.16-12.96-15.54-1.86-2.68-3.8-5.24-5.8-7.7-2.01-2.46-3.39-3.96-4.15-4.49-.76-.54-1.93-.81-3.54-.81h-2.35v13.14c0,4.66.11,7.7.33,9.14.22,1.44.8,2.51,1.75,3.21.94.7,2.76,1.05,5.43,1.05h2.84v2.01h-28.32v-2.01h1.92c2.53,0,4.29-.32,5.26-.96s1.59-1.64,1.86-2.99c.26-1.35.39-4.5.39-9.45v-29.02c0-4.71-.13-7.75-.39-9.12-.26-1.37-.85-2.31-1.75-2.84-.9-.52-2.85-.79-5.85-.79h-1v-2.01l8.47-.44c5.65-.26,10.12-.39,13.44-.39,5.65,0,10.24.52,13.77,1.57s6.4,2.76,8.58,5.15c2.18,2.38,3.27,5.24,3.27,8.55,0,3.87-1.43,7.17-4.28,9.91-2.85,2.74-7.04,4.44-12.57,5.11,2.47,1.19,6.46,5.5,11.96,12.92,4.48,6.02,8,9.97,10.56,11.83,2.56,1.86,5.59,2.85,9.08,2.97v2.01ZM619.87,210.32c2.18-.06,4.43-.15,6.76-.26,2.33-.12,4.35-.44,6.07-.96,1.72-.52,3.1-1.29,4.17-2.29,1.06-1,1.9-2.32,2.51-3.95.61-1.63.92-3.64.92-6.02,0-4.16-1.04-7.49-3.12-9.99-2.08-2.5-6.61-3.75-13.6-3.75-1.08,0-2.31.06-3.71.17v27.06Z"/>
        <path class="cls-1" d="M662.61,195.91h-2.01l.3-14.23h57.44l.3,14.23h-1.88c-.67-3.9-1.58-6.71-2.75-8.45-1.16-1.73-2.41-2.79-3.75-3.19s-3.62-.59-6.85-.59h-9.51v41.77c0,4.63.11,7.67.33,9.12s.81,2.53,1.77,3.23c.96.7,2.76,1.05,5.41,1.05h2.88v2.01h-29.5v-2.01h3.05c2.53,0,4.29-.32,5.26-.96s1.6-1.64,1.88-2.99c.27-1.35.42-4.5.42-9.45v-41.77h-8.77c-3.81,0-6.37.18-7.68.55-1.31.36-2.54,1.46-3.69,3.29-1.15,1.83-2.03,4.63-2.64,8.38Z"/>
        <path class="cls-1" d="M778.42,242.22l-41.86-55.47v41.07c0,3.41.17,5.65.5,6.72.33,1.08,1.29,2.07,2.86,2.97,1.57.9,3.93,1.35,7.07,1.35v2.01h-22.08v-2.01c2.82-.2,4.98-.72,6.46-1.55,1.48-.83,2.36-1.72,2.64-2.68.28-.96.42-3.23.42-6.81v-31.38c0-4.54-.21-7.58-.63-9.12-.42-1.54-1.09-2.53-2.01-2.97-.92-.44-2.96-.65-6.13-.65v-2.01h17.46l35.04,46.31v-35.39c0-2.62-.27-4.45-.81-5.5s-1.64-1.88-3.3-2.49-3.65-.92-5.98-.92v-2.01h21.47v2.01c-2.5.2-4.47.68-5.91,1.44s-2.36,1.67-2.75,2.73c-.39,1.06-.59,2.86-.59,5.39v48.97h-1.88Z"/>
        <path class="cls-1" d="M844.12,222.45h2.09l-1.27,18.42h-49.01v-2.01h1.22c2.94,0,4.84-.39,5.7-1.18.86-.79,1.4-1.78,1.64-2.99.23-1.21.35-4.28.35-9.23v-29.02c0-4.51-.12-7.48-.37-8.9-.25-1.43-.81-2.42-1.7-2.99-.89-.57-2.76-.85-5.61-.85v-2.01h42.29l1.4,14.75h-2.05c-.93-4.13-2.07-7.06-3.43-8.79-1.35-1.73-2.96-2.82-4.82-3.27s-4.86-.68-8.99-.68h-8.21v24.83h6.28c2.88,0,4.89-.25,6.05-.74,1.15-.49,1.91-1.24,2.27-2.25.36-1,.54-2.96.54-5.87h2.05v20.25h-2.05c0-3.29-.28-5.49-.83-6.61-.55-1.12-1.36-1.85-2.42-2.18s-2.86-.5-5.39-.5h-6.5v14.01c0,7.01.45,11.14,1.35,12.37.9,1.24,3.33,1.85,7.29,1.85h4.41c3.11,0,5.67-.4,7.68-1.2,2.01-.8,3.92-2.44,5.74-4.93,1.82-2.49,3.25-5.91,4.3-10.28Z"/>
        <path class="cls-1" d="M916.63,240.87h-15.93c-2.82-1.98-7.15-7.16-12.96-15.54-1.86-2.68-3.8-5.24-5.8-7.7-2.01-2.46-3.39-3.96-4.15-4.49-.76-.54-1.93-.81-3.54-.81h-2.35v13.14c0,4.66.11,7.7.33,9.14.22,1.44.8,2.51,1.75,3.21.94.7,2.76,1.05,5.43,1.05h2.84v2.01h-28.32v-2.01h1.92c2.53,0,4.29-.32,5.26-.96s1.59-1.64,1.86-2.99c.26-1.35.39-4.5.39-9.45v-29.02c0-4.71-.13-7.75-.39-9.12-.26-1.37-.85-2.31-1.75-2.84-.9-.52-2.85-.79-5.85-.79h-1v-2.01l8.47-.44c5.65-.26,10.12-.39,13.44-.39,5.65,0,10.24.52,13.77,1.57s6.4,2.76,8.58,5.15c2.18,2.38,3.27,5.24,3.27,8.55,0,3.87-1.43,7.17-4.28,9.91-2.85,2.74-7.04,4.44-12.57,5.11,2.47,1.19,6.46,5.5,11.96,12.92,4.48,6.02,8,9.97,10.56,11.83,2.56,1.86,5.59,2.85,9.08,2.97v2.01ZM871.9,210.32c2.18-.06,4.43-.15,6.76-.26,2.33-.12,4.35-.44,6.07-.96,1.72-.52,3.1-1.29,4.17-2.29,1.06-1,1.9-2.32,2.51-3.95.61-1.63.92-3.64.92-6.02,0-4.16-1.04-7.49-3.12-9.99-2.08-2.5-6.61-3.75-13.6-3.75-1.08,0-2.31.06-3.71.17v27.06Z"/>
        <path class="cls-1" d="M924.64,240.26v-19.03h2.18c2.47,12.39,8.33,18.59,17.59,18.59,4.16,0,7.38-1.18,9.67-3.56,2.29-2.37,3.43-5.02,3.43-7.96s-1-5.46-3.01-7.46c-2.01-1.98-5.67-4.1-11-6.37-4.74-2.04-8.32-3.82-10.74-5.35-2.41-1.53-4.3-3.51-5.65-5.96-1.35-2.44-2.03-5.05-2.03-7.81,0-4.22,1.46-7.73,4.38-10.54,2.93-2.81,6.63-4.21,11.11-4.21,2.5,0,4.86.41,7.07,1.22s4.48,2.5,6.81,5.06c1.34-1.6,2.09-3.33,2.27-5.19h1.92v15.49h-1.92c-1.11-4.51-3.06-8.06-5.87-10.65-2.81-2.59-6.06-3.88-9.75-3.88s-6.11.95-7.75,2.86c-1.64,1.91-2.47,3.99-2.47,6.26,0,2.73,1.03,5.05,3.1,6.94,2.04,1.92,5.72,4.07,11.04,6.46,5.09,2.27,8.79,4.1,11.11,5.48s4.17,3.29,5.56,5.74c1.4,2.44,2.09,5.27,2.09,8.47,0,5.06-1.69,9.18-5.06,12.35-3.38,3.17-7.89,4.76-13.53,4.76-6.49,0-11.9-2.49-16.24-7.46-.96,1.37-1.67,3.29-2.14,5.76h-2.18Z"/>
      </g>
      <polygon class="cls-1" points="900.22 145.18 892.88 138.36 870.5 137.16 867.95 128.19 793.21 132.79 756.08 117.81 710.39 80.07 671.14 66.73 657.62 47.67 647.08 48.33 640.6 45.47 614.79 49.18 609.13 43.14 588.63 46.09 585.51 38.94 566.32 41.51 554.83 31.13 540.63 33.11 533.48 21.19 500.37 33.31 494.31 30.35 479.48 30.88 454.93 27.32 436.96 36.02 427.38 46.45 422.1 46.56 364.63 73.3 350.37 73.6 343.62 80.87 315.51 87.97 297.47 89.18 262.72 95.51 251.3 102.18 233.68 111.15 226.92 110.66 200.98 120.71 194.48 117.84 177.24 126.6 150.67 124.85 82.98 128.21 50.74 133.65 50 129.29 82.63 123.8 150.7 120.43 150.83 120.44 176.32 122.11 194.34 112.96 201.09 115.93 226.25 106.19 232.77 106.65 249.18 98.3 261.16 91.3 261.55 91.23 297.05 84.79 315.01 83.58 341.27 76.91 348.41 69.23 363.61 68.9 421.07 42.17 425.4 42.07 434.28 32.41 454.22 22.76 479.72 26.45 495.26 25.89 500.62 28.52 535.39 15.79 542.92 28.33 556.26 26.47 567.76 36.86 588.22 34.12 591.33 41.24 610.78 38.44 616.44 44.48 641.22 40.92 647.88 43.85 659.8 43.1 673.92 63.01 712.58 76.15 712.89 76.41 758.36 113.97 793.93 128.32 871.22 123.56 873.89 132.92 894.71 134.03 901.91 140.72 917.21 140.4 917.31 144.81 900.22 145.18"/>
      <polygon class="cls-1" points="525.17 18.55 524.93 7.36 529.62 7.26 529.57 4.46 524.87 4.56 524.77 0 521.98 .06 522.08 4.62 517.38 4.72 517.44 7.52 522.14 7.42 522.4 19.56 525.17 18.55"/>
    </g>
  </g>
</svg>